# xmcd CD database file
#
# Track frame offsets:
#	183
#	15653
#	29355
#	44330
#	60368
#	76423
#	89718
#	100815
#	116865
#	132508
#	145638
#	159475
#	174183
#	190315
#	203630
#	219755
#	230555
#	246008
#	261783
#	270045
#	284708
#	296635
#	311263
#	322788
#
# Disc length: 4429 seconds
#
# Revision: 0
# Processed by: cddbd v1.4PL0 Copyright (c) Steve Scherf et al.
# Submitted via: CDex 1.50beta10
#
DISCID=4b114b18
DTITLE=Various Artist - 24 Jazz giants
DYEAR=1900
DGENRE=Jazz
TTITLE0=Mack the Knife/ Louis Armstrong
TTITLE1=Caravan/Duke Ellington
TTITLE2=Hamp's Boogie Woogie/Lionel Hampton
TTITLE3=Evidence/Thelonious monk
TTITLE4=In the Mood/Glenn Miller
TTITLE5=Fascinating Rythm/Stéphane Grappelli
TTITLE6=I've Got the World on a String/Art Tatum
TTITLE7=You Made Me love You/Earl Hines
TTITLE8=Stardust/Benny Goodman
TTITLE9=Sleepy Lagoon/Harry James
TTITLE10=One O'Clock Jump/Count Basie
TTITLE11=Minnise The Moocher/Cab Calloway
TTITLE12=C'est si Bon/Louis Armstrong
TTITLE13=Take the A train/Duke Ellington
TTITLE14=Dues in Blues/Lionel Hampton
TTITLE15=Blue Sphere/Thelonious Monk
TTITLE16=Moonlight Serenade/Glenn Miller
TTITLE17=Love for Sale/Stéphane Grappelli
TTITLE18=Fine and Dandy/art Tatum
TTITLE19=Indian Summer/Earl Hines
TTITLE20=Mission To Moscow/Benny Goodman
TTITLE21=September Song /Harry James
TTITLE22=Red Bank Boogie/Count Basie
TTITLE23=Right now/Herbie Hancok
EXTD=
EXTT0=
EXTT1=
EXTT2=
EXTT3=
EXTT4=
EXTT5=
EXTT6=
EXTT7=
EXTT8=
EXTT9=
EXTT10=
EXTT11=
EXTT12=
EXTT13=
EXTT14=
EXTT15=
EXTT16=
EXTT17=
EXTT18=
EXTT19=
EXTT20=
EXTT21=
EXTT22=
EXTT23=
PLAYORDER=
